#!OML:ASF F:\VICON\USERDATA\INSTALL\rory3\rory3.ASF
:FULLY-SPECIFIED
:DEGREES
678
root 5.10466 17.7452 -1.36973 3.11985 23.0969 -4.64653
lowerback 12.7879 0.14868 2.42806
upperback 0.799433 0.585326 0.417093
thorax -6.31593 0.228256 -1.03768
lowerneck -20.1093 -9.50311 -10.8261
upperneck 19.3738 -12.8717 12.1016
head 11.1381 -5.32581 4.04927
rclavicle -1.58034e-014 2.10712e-014
rhumerus 23.3406 -3.92277 -21.0781
rradius 64.484
rwrist 21.0715
rhand -7.70194 3.20185
rfingers 7.12502
rthumb 18.1956 -25.9671
lclavicle -1.58034e-014 2.10712e-014
lhumerus 14.7227 -29.8154 84.2709
lradius 120.112
lwrist -4.56389
lhand -5.29426 4.58198
lfingers 7.12502
lthumb 20.5107 33.5185
rfemur -8.26132 -0.189053 -2.59013
rtibia 28.2498
rfoot -3.59145 -19.9394
rtoes 2.63084
lfemur -18.4073 -7.16514 5.63847
ltibia 31.3055
lfoot 1.3799 -2.58994
ltoes -35.2373
679
root 5.01719 17.7504 -1.36266 3.11595 22.2831 -4.77495
lowerback 12.7251 0.456911 3.34729
upperback 0.71158 1.14117 0.650862
thorax -6.34213 0.475808 -1.4087
lowerneck -19.8523 -9.31204 -10.6207
upperneck 19.994 -12.467 11.0172
head 11.1615 -5.24811 3.70898
rclavicle -8.34896e-015 7.95139e-016
rhumerus 30.0032 -5.55204 -21.8026
rradius 51.7992
rwrist 29.2693
rhand -1.65767 1.90266
rfingers 7.12502
rthumb 24.0017 -26.6168
lclavicle -8.34896e-015 7.95139e-016
lhumerus 13.5648 -28.9098 84.9742
lradius 120.902
lwrist -4.4097
lhand -5.53178 5.09598
lfingers 7.12502
lthumb 20.2824 34.057
rfemur -8.07631 0.912788 -2.59728
rtibia 25.4773
rfoot -4.53159 -20.3508
rtoes 2.87788
lfemur -18.1569 -6.3034 5.69265
ltibia 32.3582
lfoot 1.43967 -3.53293
ltoes -36.7719
680
root 4.93558 17.7426 -1.34276 3.19508 21.5227 -4.77946
lowerback 12.6148 0.757319 4.09326
upperback 0.623404 1.66529 0.970872
thorax -6.33855 0.714159 -1.58244
lowerneck -20.0225 -9.18105 -10.705
upperneck 20.8006 -12.0892 10.1667
head 11.3857 -5.16134 3.48326
rclavicle 5.32681e-014 -4.22417e-015
rhumerus 34.288 -8.30084 -24.877
rradius 44.9267
rwrist 37.9049
rhand 3.5984 3.87862
rfingers 7.12502
rthumb 29.0322 -23.8796
lclavicle 5.32681e-014 -4.22417e-015
lhumerus 12.3725 -27.9988 85.7875
lradius 121.499
lwrist -3.72952
lhand -6.36266 5.17944
lfingers 7.12502
lthumb 19.4837 34.2232
rfemur -7.82785 2.01607 -2.76734
rtibia 22.6106
rfoot -5.0738 -20.5871
rtoes 2.58126
lfemur -17.7213 -5.57129 5.658
ltibia 33.1596
lfoot 1.15851 -5.21288
ltoes -38.1975
681
root 4.8567 17.7264 -1.31191 3.34532 20.9537 -4.70387
lowerback 12.5631 1.15832 4.78244
upperback 0.525951 2.31238 1.21193
thorax -6.36132 1.01187 -1.82782
lowerneck -20.2209 -9.24237 -10.934
upperneck 21.1925 -12.0674 9.9746
head 11.5691 -5.17763 3.45078
rclavicle 3.926e-015 -2.27608e-014
rhumerus 35.3903 -11.751 -29.3383
rradius 44.8211
rwrist 42.2868
rhand 1.67556 6.86529
rfingers 7.12502
rthumb 27.1943 -21.1949
lclavicle 3.926e-015 -2.27608e-014
lhumerus 11.3908 -27.6465 86.5528
lradius 121.833
lwrist -2.95542
lhand -7.05509 5.14236
lfingers 7.12502
lthumb 18.8178 34.2521
rfemur -7.5458 3.03601 -3.03859
rtibia 19.759
rfoot -5.26106 -20.7394
rtoes 1.60452
lfemur -17.1464 -5.21466 5.60532
ltibia 33.6086
lfoot 0.966927 -6.32436
ltoes -37.7783
682
root 4.7699 17.7061 -1.26889 3.55556 20.722 -4.55552
lowerback 12.6251 1.62295 5.21422
upperback 0.398748 3.01495 1.43025
thorax -6.47727 1.34009 -1.965
lowerneck -20.2799 -9.53056 -11.2685
upperneck 21.011 -12.4587 10.3838
head 11.6164 -5.33007 3.57795
rclavicle -8.0806e-014 4.37326e-015
rhumerus 33.3893 -13.1145 -31.4935
rradius 50.5758
rwrist 35.4959
rhand -1.13753 6.20235
rfingers 7.12502
rthumb 24.5004 -22.2505
lclavicle -8.0806e-014 4.37326e-015
lhumerus 10.607 -27.7702 87.2364
lradius 122.024
lwrist -2.40337
lhand -7.31989 4.94855
lfingers 7.12502
lthumb 18.5631 34.0828
rfemur -7.1978 4.19872 -3.3344
rtibia 17.1298
rfoot -5.75162 -20.8106
rtoes 1.38466
lfemur -16.491 -5.2402 5.57811
ltibia 33.5824
lfoot 0.7875 -6.09904
ltoes -37.651
683
root 4.67086 17.681 -1.21183 3.92544 20.8674 -4.19524
lowerback 12.6483 2.00416 5.25374
upperback 0.267131 3.53803 1.49322
thorax -6.59664 1.58933 -2.01454
lowerneck -20.4197 -9.88042 -11.3253
upperneck 20.5173 -13.0782 11.1284
head 11.6024 -5.52529 3.73457
rclavicle 8.67695e-014 -3.57812e-015
rhumerus 30.0892 -12.4835 -31.7914
rradius 57.8107
rwrist 21.5396
rhand -6.55028 5.08468
rfingers 7.12502
rthumb 19.3033 -23.9773
lclavicle 8.67695e-014 -3.57812e-015
lhumerus 9.93531 -28.1667 87.4586
lradius 122.239
lwrist -2.4541
lhand -7.37806 4.69431
lfingers 7.12502
lthumb 18.5072 33.8339
rfemur -6.94826 5.58701 -3.79225
rtibia 15.0288
rfoot -6.29415 -20.6814
rtoes 1.95667
lfemur -15.8467 -5.5546 5.43996
ltibia 33.0163
lfoot 0.78257 -4.91291
ltoes -39.2656
684
root 4.5582 17.6449 -1.14184 4.53004 21.1974 -3.50364
lowerback 12.3268 2.23096 4.71759
upperback 0.201484 3.74057 1.45181
thorax -6.50218 1.70659 -1.77934
lowerneck -20.6368 -10.0091 -11.0537
upperneck 19.911 -13.4421 11.8033
head 11.5027 -5.59051 3.8574
rclavicle 1.00386e-014 1.15295e-014
rhumerus 27.5784 -10.9129 -32.4458
rradius 64.5519
rwrist 5.79191
rhand -9.74759 5.58164
rfingers 7.12502
rthumb 16.2267 -23.7593
lclavicle 1.00386e-014 1.15295e-014
lhumerus 9.39764 -28.5096 87.182
lradius 122.669
lwrist -3.14133
lhand -7.29971 4.5186
lfingers 7.12502
lthumb 18.5826 33.651
rfemur -7.17154 6.94714 -4.56225
rtibia 13.8489
rfoot -6.17841 -20.2073
rtoes 2.27375
lfemur -15.2042 -5.95433 5.06404
ltibia 31.9241
lfoot 0.796655 -3.64115
ltoes -40.4599
685
root 4.43009 17.6022 -1.06088 5.18915 21.6785 -2.70725
lowerback 11.7603 2.22798 3.72772
upperback 0.0284424 3.58377 1.58838
thorax -6.44511 1.66384 -1.03447
lowerneck -20.2571 -9.801 -10.8985
upperneck 19.314 -13.2346 12.0812
head 11.1948 -5.48255 3.98023
rclavicle -7.30534e-014 -1.70955e-014
rhumerus 26.0109 -8.82793 -34.2039
rradius 70.3255
rwrist -4.58821
rhand -8.07978 6.10788
rfingers 7.12502
rthumb 17.8321 -23.0946
lclavicle -7.30534e-014 -1.70955e-014
lhumerus 8.29113 -28.4125 87.1364
lradius 123.312
lwrist -4.03794
lhand -7.14474 4.10813
lfingers 7.12502
lthumb 18.7316 33.2262
rfemur -7.89266 8.21875 -5.36238
rtibia 13.8154
rfoot -5.74227 -19.263
rtoes 1.98639
lfemur -14.5253 -6.39325 4.67765
ltibia 30.4202
lfoot 0.170646 -2.756
ltoes -40.9693
686
root 4.29356 17.5533 -0.975819 5.71097 22.402 -1.9415
lowerback 11.3203 1.88891 2.70352
upperback -0.278486 3.00579 1.85754
thorax -6.61286 1.41493 -0.0720476
lowerneck -19.5744 -9.30496 -10.8446
upperneck 19.0803 -12.5385 11.9062
head 10.8709 -5.21754 4.05607
rclavicle 1.11319e-014 -1.11319e-014
rhumerus 24.4732 -6.15456 -36.4578
rradius 75.1906
rwrist -5.96624
rhand -6.00216 7.16542
rfingers 7.12502
rthumb 19.8303 -21.8429
lclavicle 1.11319e-014 -1.11319e-014
lhumerus 6.67861 -27.6852 87.1726
lradius 124.128
lwrist -4.74418
lhand -6.56665 3.90161
lfingers 7.12502
lthumb 19.2876 32.9651
rfemur -8.81707 9.10841 -5.97712
rtibia 14.7956
rfoot -5.148 -17.7614
rtoes 0.893097
lfemur -13.8345 -6.91568 4.41477
ltibia 28.6666
lfoot -0.582556 -1.97681
ltoes -40.8371
